<mxfile host="app.diagrams.net" agent="Mozilla/5.0 (Windows NT 10.0; Win64; x64) AppleWebKit/537.36 (KHTML, like Gecko) Chrome/129.0.0.0 Safari/537.36" version="24.7.17">
  <diagram name="Page-1" id="GStwIMfuSFspclw9Y9E0">
    <mxGraphModel dx="1595" dy="710" grid="1" gridSize="10" guides="1" tooltips="1" connect="1" arrows="1" fold="1" page="1" pageScale="1" pageWidth="850" pageHeight="1100" math="0" shadow="0">
      <root>
        <mxCell id="0" />
        <mxCell id="1" parent="0" />
        <mxCell id="FWK3cAZDFUBAqfE7T13u-14" style="edgeStyle=orthogonalEdgeStyle;rounded=0;orthogonalLoop=1;jettySize=auto;html=1;entryX=0;entryY=0.5;entryDx=0;entryDy=0;fillColor=#ffcccc;strokeColor=#36393d;" edge="1" parent="1" source="FWK3cAZDFUBAqfE7T13u-1" target="FWK3cAZDFUBAqfE7T13u-2">
          <mxGeometry relative="1" as="geometry" />
        </mxCell>
        <mxCell id="FWK3cAZDFUBAqfE7T13u-1" value="INICIO" style="ellipse;whiteSpace=wrap;html=1;fillColor=#ffcccc;strokeColor=#36393d;" vertex="1" parent="1">
          <mxGeometry x="-450" y="215" width="100" height="70" as="geometry" />
        </mxCell>
        <mxCell id="FWK3cAZDFUBAqfE7T13u-15" style="edgeStyle=orthogonalEdgeStyle;rounded=0;orthogonalLoop=1;jettySize=auto;html=1;entryX=0;entryY=0.5;entryDx=0;entryDy=0;fillColor=#ffcccc;strokeColor=#36393d;" edge="1" parent="1" source="FWK3cAZDFUBAqfE7T13u-2" target="FWK3cAZDFUBAqfE7T13u-3">
          <mxGeometry relative="1" as="geometry" />
        </mxCell>
        <mxCell id="FWK3cAZDFUBAqfE7T13u-2" value="&lt;div&gt;5&lt;/div&gt;Analisis de requerimientos" style="ellipse;whiteSpace=wrap;html=1;fillColor=#ffcccc;strokeColor=#36393d;" vertex="1" parent="1">
          <mxGeometry x="-270" y="210" width="120" height="80" as="geometry" />
        </mxCell>
        <mxCell id="FWK3cAZDFUBAqfE7T13u-16" style="edgeStyle=orthogonalEdgeStyle;rounded=0;orthogonalLoop=1;jettySize=auto;html=1;entryX=0;entryY=0.5;entryDx=0;entryDy=0;fillColor=#ffcccc;strokeColor=#36393d;" edge="1" parent="1" source="FWK3cAZDFUBAqfE7T13u-3" target="FWK3cAZDFUBAqfE7T13u-4">
          <mxGeometry relative="1" as="geometry">
            <mxPoint x="105" y="250" as="targetPoint" />
          </mxGeometry>
        </mxCell>
        <mxCell id="FWK3cAZDFUBAqfE7T13u-17" style="edgeStyle=orthogonalEdgeStyle;rounded=0;orthogonalLoop=1;jettySize=auto;html=1;entryX=0.5;entryY=0;entryDx=0;entryDy=0;" edge="1" parent="1" source="FWK3cAZDFUBAqfE7T13u-3" target="FWK3cAZDFUBAqfE7T13u-6">
          <mxGeometry relative="1" as="geometry" />
        </mxCell>
        <mxCell id="FWK3cAZDFUBAqfE7T13u-3" value="&lt;div&gt;7&lt;/div&gt;DiseÃ±o del SIstema" style="ellipse;whiteSpace=wrap;html=1;fillColor=#ffcccc;strokeColor=#36393d;" vertex="1" parent="1">
          <mxGeometry x="-60" y="220" width="120" height="60" as="geometry" />
        </mxCell>
        <mxCell id="FWK3cAZDFUBAqfE7T13u-19" style="edgeStyle=orthogonalEdgeStyle;rounded=0;orthogonalLoop=1;jettySize=auto;html=1;entryX=0;entryY=0.5;entryDx=0;entryDy=0;fillColor=#ffcccc;strokeColor=#36393d;" edge="1" parent="1" source="FWK3cAZDFUBAqfE7T13u-4" target="FWK3cAZDFUBAqfE7T13u-5">
          <mxGeometry relative="1" as="geometry" />
        </mxCell>
        <mxCell id="FWK3cAZDFUBAqfE7T13u-4" value="10&lt;div&gt;Desarrollo de la base de datos&lt;/div&gt;" style="ellipse;whiteSpace=wrap;html=1;fillColor=#ffcccc;strokeColor=#36393d;" vertex="1" parent="1">
          <mxGeometry x="140" y="210" width="120" height="80" as="geometry" />
        </mxCell>
        <mxCell id="FWK3cAZDFUBAqfE7T13u-20" style="edgeStyle=orthogonalEdgeStyle;rounded=0;orthogonalLoop=1;jettySize=auto;html=1;entryX=0.5;entryY=0;entryDx=0;entryDy=0;fillColor=#ffcccc;strokeColor=#36393d;" edge="1" parent="1" source="FWK3cAZDFUBAqfE7T13u-5" target="FWK3cAZDFUBAqfE7T13u-8">
          <mxGeometry relative="1" as="geometry" />
        </mxCell>
        <mxCell id="FWK3cAZDFUBAqfE7T13u-5" value="10&lt;div&gt;Desarrollo del backend&lt;/div&gt;" style="ellipse;whiteSpace=wrap;html=1;fillColor=#ffcccc;strokeColor=#36393d;" vertex="1" parent="1">
          <mxGeometry x="330" y="210" width="120" height="80" as="geometry" />
        </mxCell>
        <mxCell id="FWK3cAZDFUBAqfE7T13u-21" style="edgeStyle=orthogonalEdgeStyle;rounded=0;orthogonalLoop=1;jettySize=auto;html=1;entryX=0;entryY=0.5;entryDx=0;entryDy=0;" edge="1" parent="1" source="FWK3cAZDFUBAqfE7T13u-6" target="FWK3cAZDFUBAqfE7T13u-8">
          <mxGeometry relative="1" as="geometry" />
        </mxCell>
        <mxCell id="FWK3cAZDFUBAqfE7T13u-6" value="10&lt;div&gt;Desarrollo del frontend&lt;/div&gt;" style="ellipse;whiteSpace=wrap;html=1;" vertex="1" parent="1">
          <mxGeometry x="-60" y="375" width="120" height="80" as="geometry" />
        </mxCell>
        <mxCell id="FWK3cAZDFUBAqfE7T13u-22" style="edgeStyle=orthogonalEdgeStyle;rounded=0;orthogonalLoop=1;jettySize=auto;html=1;entryX=0.5;entryY=0;entryDx=0;entryDy=0;fillColor=#ffcccc;strokeColor=#36393d;" edge="1" parent="1" source="FWK3cAZDFUBAqfE7T13u-8" target="FWK3cAZDFUBAqfE7T13u-9">
          <mxGeometry relative="1" as="geometry" />
        </mxCell>
        <mxCell id="FWK3cAZDFUBAqfE7T13u-8" value="5&lt;div&gt;Integracion del sistema&lt;/div&gt;" style="ellipse;whiteSpace=wrap;html=1;fillColor=#ffcccc;strokeColor=#36393d;" vertex="1" parent="1">
          <mxGeometry x="330" y="375" width="120" height="80" as="geometry" />
        </mxCell>
        <mxCell id="FWK3cAZDFUBAqfE7T13u-26" style="edgeStyle=orthogonalEdgeStyle;rounded=0;orthogonalLoop=1;jettySize=auto;html=1;entryX=0.5;entryY=0;entryDx=0;entryDy=0;fillColor=#ffcccc;strokeColor=#36393d;" edge="1" parent="1" source="FWK3cAZDFUBAqfE7T13u-9" target="FWK3cAZDFUBAqfE7T13u-10">
          <mxGeometry relative="1" as="geometry" />
        </mxCell>
        <mxCell id="FWK3cAZDFUBAqfE7T13u-9" value="&lt;div&gt;7&lt;/div&gt;Pruebas del sistema" style="ellipse;whiteSpace=wrap;html=1;fillColor=#ffcccc;strokeColor=#36393d;" vertex="1" parent="1">
          <mxGeometry x="330" y="525" width="120" height="80" as="geometry" />
        </mxCell>
        <mxCell id="FWK3cAZDFUBAqfE7T13u-25" style="edgeStyle=orthogonalEdgeStyle;rounded=0;orthogonalLoop=1;jettySize=auto;html=1;entryX=1;entryY=0.5;entryDx=0;entryDy=0;" edge="1" parent="1" source="FWK3cAZDFUBAqfE7T13u-10" target="FWK3cAZDFUBAqfE7T13u-11">
          <mxGeometry relative="1" as="geometry" />
        </mxCell>
        <mxCell id="FWK3cAZDFUBAqfE7T13u-10" value="3&lt;div&gt;Capacitacion de usuarios&lt;/div&gt;" style="ellipse;whiteSpace=wrap;html=1;fillColor=#ffcccc;strokeColor=#36393d;" vertex="1" parent="1">
          <mxGeometry x="330" y="685" width="120" height="80" as="geometry" />
        </mxCell>
        <mxCell id="FWK3cAZDFUBAqfE7T13u-24" style="edgeStyle=orthogonalEdgeStyle;rounded=0;orthogonalLoop=1;jettySize=auto;html=1;entryX=1;entryY=0.5;entryDx=0;entryDy=0;exitX=0;exitY=0.5;exitDx=0;exitDy=0;fillColor=#ffcccc;strokeColor=#36393d;" edge="1" parent="1" source="FWK3cAZDFUBAqfE7T13u-11" target="FWK3cAZDFUBAqfE7T13u-12">
          <mxGeometry relative="1" as="geometry">
            <mxPoint x="79.99999999999977" y="725" as="sourcePoint" />
          </mxGeometry>
        </mxCell>
        <mxCell id="FWK3cAZDFUBAqfE7T13u-11" value="2&lt;div&gt;Implementacion del sistema&lt;/div&gt;" style="ellipse;whiteSpace=wrap;html=1;fillColor=#ffcccc;strokeColor=#36393d;" vertex="1" parent="1">
          <mxGeometry x="110" y="685" width="120" height="80" as="geometry" />
        </mxCell>
        <mxCell id="FWK3cAZDFUBAqfE7T13u-23" style="edgeStyle=orthogonalEdgeStyle;rounded=0;orthogonalLoop=1;jettySize=auto;html=1;entryX=0;entryY=0.5;entryDx=0;entryDy=0;" edge="1" parent="1" source="FWK3cAZDFUBAqfE7T13u-12" target="FWK3cAZDFUBAqfE7T13u-13">
          <mxGeometry relative="1" as="geometry" />
        </mxCell>
        <mxCell id="FWK3cAZDFUBAqfE7T13u-12" value="5&lt;div&gt;Monitoreo y Ajustes iniciales&lt;/div&gt;" style="ellipse;whiteSpace=wrap;html=1;fillColor=#ffcccc;strokeColor=#36393d;" vertex="1" parent="1">
          <mxGeometry x="-110" y="685" width="120" height="80" as="geometry" />
        </mxCell>
        <mxCell id="FWK3cAZDFUBAqfE7T13u-13" value="FIN" style="ellipse;whiteSpace=wrap;html=1;direction=south;fillColor=#ffcccc;strokeColor=#36393d;" vertex="1" parent="1">
          <mxGeometry x="-102.5" y="825" width="105" height="65" as="geometry" />
        </mxCell>
        <mxCell id="FWK3cAZDFUBAqfE7T13u-33" value="" style="group" vertex="1" connectable="0" parent="1">
          <mxGeometry x="-440" y="130" width="80" height="80" as="geometry" />
        </mxCell>
        <mxCell id="FWK3cAZDFUBAqfE7T13u-27" value="" style="endArrow=none;html=1;rounded=0;" edge="1" parent="FWK3cAZDFUBAqfE7T13u-33">
          <mxGeometry width="50" height="50" relative="1" as="geometry">
            <mxPoint x="40" y="80" as="sourcePoint" />
            <mxPoint x="40" as="targetPoint" />
          </mxGeometry>
        </mxCell>
        <mxCell id="FWK3cAZDFUBAqfE7T13u-28" value="" style="endArrow=none;html=1;rounded=0;" edge="1" parent="FWK3cAZDFUBAqfE7T13u-33">
          <mxGeometry width="50" height="50" relative="1" as="geometry">
            <mxPoint x="80" y="40" as="sourcePoint" />
            <mxPoint y="40" as="targetPoint" />
          </mxGeometry>
        </mxCell>
        <mxCell id="FWK3cAZDFUBAqfE7T13u-29" value="0" style="text;html=1;align=center;verticalAlign=middle;whiteSpace=wrap;rounded=0;" vertex="1" parent="FWK3cAZDFUBAqfE7T13u-33">
          <mxGeometry width="40" height="40" as="geometry" />
        </mxCell>
        <mxCell id="FWK3cAZDFUBAqfE7T13u-30" value="0" style="text;html=1;align=center;verticalAlign=middle;whiteSpace=wrap;rounded=0;" vertex="1" parent="FWK3cAZDFUBAqfE7T13u-33">
          <mxGeometry x="40" width="40" height="40" as="geometry" />
        </mxCell>
        <mxCell id="FWK3cAZDFUBAqfE7T13u-31" value="0" style="text;html=1;align=center;verticalAlign=middle;whiteSpace=wrap;rounded=0;" vertex="1" parent="FWK3cAZDFUBAqfE7T13u-33">
          <mxGeometry y="40" width="40" height="40" as="geometry" />
        </mxCell>
        <mxCell id="FWK3cAZDFUBAqfE7T13u-32" value="0" style="text;html=1;align=center;verticalAlign=middle;whiteSpace=wrap;rounded=0;" vertex="1" parent="FWK3cAZDFUBAqfE7T13u-33">
          <mxGeometry x="40" y="40" width="40" height="40" as="geometry" />
        </mxCell>
        <mxCell id="FWK3cAZDFUBAqfE7T13u-34" value="" style="group" vertex="1" connectable="0" parent="1">
          <mxGeometry x="-250" y="120" width="80" height="80" as="geometry" />
        </mxCell>
        <mxCell id="FWK3cAZDFUBAqfE7T13u-35" value="" style="endArrow=none;html=1;rounded=0;" edge="1" parent="FWK3cAZDFUBAqfE7T13u-34">
          <mxGeometry width="50" height="50" relative="1" as="geometry">
            <mxPoint x="40" y="80" as="sourcePoint" />
            <mxPoint x="40" as="targetPoint" />
          </mxGeometry>
        </mxCell>
        <mxCell id="FWK3cAZDFUBAqfE7T13u-36" value="" style="endArrow=none;html=1;rounded=0;" edge="1" parent="FWK3cAZDFUBAqfE7T13u-34">
          <mxGeometry width="50" height="50" relative="1" as="geometry">
            <mxPoint x="80" y="40" as="sourcePoint" />
            <mxPoint y="40" as="targetPoint" />
          </mxGeometry>
        </mxCell>
        <mxCell id="FWK3cAZDFUBAqfE7T13u-37" value="0" style="text;html=1;align=center;verticalAlign=middle;whiteSpace=wrap;rounded=0;" vertex="1" parent="FWK3cAZDFUBAqfE7T13u-34">
          <mxGeometry width="40" height="40" as="geometry" />
        </mxCell>
        <mxCell id="FWK3cAZDFUBAqfE7T13u-38" value="5" style="text;html=1;align=center;verticalAlign=middle;whiteSpace=wrap;rounded=0;" vertex="1" parent="FWK3cAZDFUBAqfE7T13u-34">
          <mxGeometry x="40" width="40" height="40" as="geometry" />
        </mxCell>
        <mxCell id="FWK3cAZDFUBAqfE7T13u-39" value="0" style="text;html=1;align=center;verticalAlign=middle;whiteSpace=wrap;rounded=0;" vertex="1" parent="FWK3cAZDFUBAqfE7T13u-34">
          <mxGeometry y="40" width="40" height="40" as="geometry" />
        </mxCell>
        <mxCell id="FWK3cAZDFUBAqfE7T13u-40" value="5" style="text;html=1;align=center;verticalAlign=middle;whiteSpace=wrap;rounded=0;" vertex="1" parent="FWK3cAZDFUBAqfE7T13u-34">
          <mxGeometry x="40" y="40" width="40" height="40" as="geometry" />
        </mxCell>
        <mxCell id="FWK3cAZDFUBAqfE7T13u-41" value="" style="group" vertex="1" connectable="0" parent="1">
          <mxGeometry x="-40" y="130" width="80" height="80" as="geometry" />
        </mxCell>
        <mxCell id="FWK3cAZDFUBAqfE7T13u-42" value="" style="endArrow=none;html=1;rounded=0;" edge="1" parent="FWK3cAZDFUBAqfE7T13u-41">
          <mxGeometry width="50" height="50" relative="1" as="geometry">
            <mxPoint x="40" y="80" as="sourcePoint" />
            <mxPoint x="40" as="targetPoint" />
          </mxGeometry>
        </mxCell>
        <mxCell id="FWK3cAZDFUBAqfE7T13u-43" value="" style="endArrow=none;html=1;rounded=0;" edge="1" parent="FWK3cAZDFUBAqfE7T13u-41">
          <mxGeometry width="50" height="50" relative="1" as="geometry">
            <mxPoint x="80" y="40" as="sourcePoint" />
            <mxPoint y="40" as="targetPoint" />
          </mxGeometry>
        </mxCell>
        <mxCell id="FWK3cAZDFUBAqfE7T13u-44" value="5" style="text;html=1;align=center;verticalAlign=middle;whiteSpace=wrap;rounded=0;" vertex="1" parent="FWK3cAZDFUBAqfE7T13u-41">
          <mxGeometry width="40" height="40" as="geometry" />
        </mxCell>
        <mxCell id="FWK3cAZDFUBAqfE7T13u-45" value="11" style="text;html=1;align=center;verticalAlign=middle;whiteSpace=wrap;rounded=0;" vertex="1" parent="FWK3cAZDFUBAqfE7T13u-41">
          <mxGeometry x="40" width="40" height="40" as="geometry" />
        </mxCell>
        <mxCell id="FWK3cAZDFUBAqfE7T13u-46" value="5" style="text;html=1;align=center;verticalAlign=middle;whiteSpace=wrap;rounded=0;" vertex="1" parent="FWK3cAZDFUBAqfE7T13u-41">
          <mxGeometry y="40" width="40" height="40" as="geometry" />
        </mxCell>
        <mxCell id="FWK3cAZDFUBAqfE7T13u-47" value="11" style="text;html=1;align=center;verticalAlign=middle;whiteSpace=wrap;rounded=0;" vertex="1" parent="FWK3cAZDFUBAqfE7T13u-41">
          <mxGeometry x="40" y="40" width="40" height="40" as="geometry" />
        </mxCell>
        <mxCell id="FWK3cAZDFUBAqfE7T13u-48" value="" style="group" vertex="1" connectable="0" parent="1">
          <mxGeometry x="160" y="120" width="80" height="80" as="geometry" />
        </mxCell>
        <mxCell id="FWK3cAZDFUBAqfE7T13u-49" value="" style="endArrow=none;html=1;rounded=0;" edge="1" parent="FWK3cAZDFUBAqfE7T13u-48">
          <mxGeometry width="50" height="50" relative="1" as="geometry">
            <mxPoint x="40" y="80" as="sourcePoint" />
            <mxPoint x="40" as="targetPoint" />
          </mxGeometry>
        </mxCell>
        <mxCell id="FWK3cAZDFUBAqfE7T13u-50" value="" style="endArrow=none;html=1;rounded=0;" edge="1" parent="FWK3cAZDFUBAqfE7T13u-48">
          <mxGeometry width="50" height="50" relative="1" as="geometry">
            <mxPoint x="80" y="40" as="sourcePoint" />
            <mxPoint y="40" as="targetPoint" />
          </mxGeometry>
        </mxCell>
        <mxCell id="FWK3cAZDFUBAqfE7T13u-51" value="11" style="text;html=1;align=center;verticalAlign=middle;whiteSpace=wrap;rounded=0;" vertex="1" parent="FWK3cAZDFUBAqfE7T13u-48">
          <mxGeometry width="40" height="40" as="geometry" />
        </mxCell>
        <mxCell id="FWK3cAZDFUBAqfE7T13u-52" value="21" style="text;html=1;align=center;verticalAlign=middle;whiteSpace=wrap;rounded=0;" vertex="1" parent="FWK3cAZDFUBAqfE7T13u-48">
          <mxGeometry x="40" width="40" height="40" as="geometry" />
        </mxCell>
        <mxCell id="FWK3cAZDFUBAqfE7T13u-53" value="11" style="text;html=1;align=center;verticalAlign=middle;whiteSpace=wrap;rounded=0;" vertex="1" parent="FWK3cAZDFUBAqfE7T13u-48">
          <mxGeometry y="40" width="40" height="40" as="geometry" />
        </mxCell>
        <mxCell id="FWK3cAZDFUBAqfE7T13u-54" value="21" style="text;html=1;align=center;verticalAlign=middle;whiteSpace=wrap;rounded=0;" vertex="1" parent="FWK3cAZDFUBAqfE7T13u-48">
          <mxGeometry x="40" y="40" width="40" height="40" as="geometry" />
        </mxCell>
        <mxCell id="FWK3cAZDFUBAqfE7T13u-55" value="" style="group" vertex="1" connectable="0" parent="1">
          <mxGeometry x="410" y="130" width="80" height="80" as="geometry" />
        </mxCell>
        <mxCell id="FWK3cAZDFUBAqfE7T13u-56" value="" style="endArrow=none;html=1;rounded=0;" edge="1" parent="FWK3cAZDFUBAqfE7T13u-55">
          <mxGeometry width="50" height="50" relative="1" as="geometry">
            <mxPoint x="40" y="80" as="sourcePoint" />
            <mxPoint x="40" as="targetPoint" />
          </mxGeometry>
        </mxCell>
        <mxCell id="FWK3cAZDFUBAqfE7T13u-57" value="" style="endArrow=none;html=1;rounded=0;" edge="1" parent="FWK3cAZDFUBAqfE7T13u-55">
          <mxGeometry width="50" height="50" relative="1" as="geometry">
            <mxPoint x="80" y="40" as="sourcePoint" />
            <mxPoint y="40" as="targetPoint" />
          </mxGeometry>
        </mxCell>
        <mxCell id="FWK3cAZDFUBAqfE7T13u-58" value="21" style="text;html=1;align=center;verticalAlign=middle;whiteSpace=wrap;rounded=0;" vertex="1" parent="FWK3cAZDFUBAqfE7T13u-55">
          <mxGeometry width="40" height="40" as="geometry" />
        </mxCell>
        <mxCell id="FWK3cAZDFUBAqfE7T13u-59" value="31" style="text;html=1;align=center;verticalAlign=middle;whiteSpace=wrap;rounded=0;" vertex="1" parent="FWK3cAZDFUBAqfE7T13u-55">
          <mxGeometry x="40" width="40" height="40" as="geometry" />
        </mxCell>
        <mxCell id="FWK3cAZDFUBAqfE7T13u-60" value="21" style="text;html=1;align=center;verticalAlign=middle;whiteSpace=wrap;rounded=0;" vertex="1" parent="FWK3cAZDFUBAqfE7T13u-55">
          <mxGeometry y="40" width="40" height="40" as="geometry" />
        </mxCell>
        <mxCell id="FWK3cAZDFUBAqfE7T13u-61" value="31" style="text;html=1;align=center;verticalAlign=middle;whiteSpace=wrap;rounded=0;" vertex="1" parent="FWK3cAZDFUBAqfE7T13u-55">
          <mxGeometry x="40" y="40" width="40" height="40" as="geometry" />
        </mxCell>
        <mxCell id="FWK3cAZDFUBAqfE7T13u-62" value="" style="group" vertex="1" connectable="0" parent="1">
          <mxGeometry x="460" y="375" width="80" height="80" as="geometry" />
        </mxCell>
        <mxCell id="FWK3cAZDFUBAqfE7T13u-63" value="" style="endArrow=none;html=1;rounded=0;" edge="1" parent="FWK3cAZDFUBAqfE7T13u-62">
          <mxGeometry width="50" height="50" relative="1" as="geometry">
            <mxPoint x="40" y="80" as="sourcePoint" />
            <mxPoint x="40" as="targetPoint" />
          </mxGeometry>
        </mxCell>
        <mxCell id="FWK3cAZDFUBAqfE7T13u-64" value="" style="endArrow=none;html=1;rounded=0;" edge="1" parent="FWK3cAZDFUBAqfE7T13u-62">
          <mxGeometry width="50" height="50" relative="1" as="geometry">
            <mxPoint x="80" y="40" as="sourcePoint" />
            <mxPoint y="40" as="targetPoint" />
          </mxGeometry>
        </mxCell>
        <mxCell id="FWK3cAZDFUBAqfE7T13u-65" value="31" style="text;html=1;align=center;verticalAlign=middle;whiteSpace=wrap;rounded=0;" vertex="1" parent="FWK3cAZDFUBAqfE7T13u-62">
          <mxGeometry width="40" height="40" as="geometry" />
        </mxCell>
        <mxCell id="FWK3cAZDFUBAqfE7T13u-66" value="36" style="text;html=1;align=center;verticalAlign=middle;whiteSpace=wrap;rounded=0;" vertex="1" parent="FWK3cAZDFUBAqfE7T13u-62">
          <mxGeometry x="40" width="40" height="40" as="geometry" />
        </mxCell>
        <mxCell id="FWK3cAZDFUBAqfE7T13u-67" value="31" style="text;html=1;align=center;verticalAlign=middle;whiteSpace=wrap;rounded=0;" vertex="1" parent="FWK3cAZDFUBAqfE7T13u-62">
          <mxGeometry y="40" width="40" height="40" as="geometry" />
        </mxCell>
        <mxCell id="FWK3cAZDFUBAqfE7T13u-68" value="36" style="text;html=1;align=center;verticalAlign=middle;whiteSpace=wrap;rounded=0;" vertex="1" parent="FWK3cAZDFUBAqfE7T13u-62">
          <mxGeometry x="40" y="40" width="40" height="40" as="geometry" />
        </mxCell>
        <mxCell id="FWK3cAZDFUBAqfE7T13u-69" value="" style="group" vertex="1" connectable="0" parent="1">
          <mxGeometry x="460" y="530" width="80" height="80" as="geometry" />
        </mxCell>
        <mxCell id="FWK3cAZDFUBAqfE7T13u-70" value="" style="endArrow=none;html=1;rounded=0;" edge="1" parent="FWK3cAZDFUBAqfE7T13u-69">
          <mxGeometry width="50" height="50" relative="1" as="geometry">
            <mxPoint x="40" y="80" as="sourcePoint" />
            <mxPoint x="40" as="targetPoint" />
          </mxGeometry>
        </mxCell>
        <mxCell id="FWK3cAZDFUBAqfE7T13u-71" value="" style="endArrow=none;html=1;rounded=0;" edge="1" parent="FWK3cAZDFUBAqfE7T13u-69">
          <mxGeometry width="50" height="50" relative="1" as="geometry">
            <mxPoint x="80" y="40" as="sourcePoint" />
            <mxPoint y="40" as="targetPoint" />
          </mxGeometry>
        </mxCell>
        <mxCell id="FWK3cAZDFUBAqfE7T13u-72" value="36" style="text;html=1;align=center;verticalAlign=middle;whiteSpace=wrap;rounded=0;" vertex="1" parent="FWK3cAZDFUBAqfE7T13u-69">
          <mxGeometry width="40" height="40" as="geometry" />
        </mxCell>
        <mxCell id="FWK3cAZDFUBAqfE7T13u-73" value="43" style="text;html=1;align=center;verticalAlign=middle;whiteSpace=wrap;rounded=0;" vertex="1" parent="FWK3cAZDFUBAqfE7T13u-69">
          <mxGeometry x="40" width="40" height="40" as="geometry" />
        </mxCell>
        <mxCell id="FWK3cAZDFUBAqfE7T13u-74" value="36" style="text;html=1;align=center;verticalAlign=middle;whiteSpace=wrap;rounded=0;" vertex="1" parent="FWK3cAZDFUBAqfE7T13u-69">
          <mxGeometry y="40" width="40" height="40" as="geometry" />
        </mxCell>
        <mxCell id="FWK3cAZDFUBAqfE7T13u-75" value="43" style="text;html=1;align=center;verticalAlign=middle;whiteSpace=wrap;rounded=0;" vertex="1" parent="FWK3cAZDFUBAqfE7T13u-69">
          <mxGeometry x="40" y="40" width="40" height="40" as="geometry" />
        </mxCell>
        <mxCell id="FWK3cAZDFUBAqfE7T13u-76" value="" style="group" vertex="1" connectable="0" parent="1">
          <mxGeometry x="420" y="765" width="80" height="80" as="geometry" />
        </mxCell>
        <mxCell id="FWK3cAZDFUBAqfE7T13u-77" value="" style="endArrow=none;html=1;rounded=0;" edge="1" parent="FWK3cAZDFUBAqfE7T13u-76">
          <mxGeometry width="50" height="50" relative="1" as="geometry">
            <mxPoint x="40" y="80" as="sourcePoint" />
            <mxPoint x="40" as="targetPoint" />
          </mxGeometry>
        </mxCell>
        <mxCell id="FWK3cAZDFUBAqfE7T13u-78" value="" style="endArrow=none;html=1;rounded=0;" edge="1" parent="FWK3cAZDFUBAqfE7T13u-76">
          <mxGeometry width="50" height="50" relative="1" as="geometry">
            <mxPoint x="80" y="40" as="sourcePoint" />
            <mxPoint y="40" as="targetPoint" />
          </mxGeometry>
        </mxCell>
        <mxCell id="FWK3cAZDFUBAqfE7T13u-79" value="43" style="text;html=1;align=center;verticalAlign=middle;whiteSpace=wrap;rounded=0;" vertex="1" parent="FWK3cAZDFUBAqfE7T13u-76">
          <mxGeometry width="40" height="40" as="geometry" />
        </mxCell>
        <mxCell id="FWK3cAZDFUBAqfE7T13u-80" value="46" style="text;html=1;align=center;verticalAlign=middle;whiteSpace=wrap;rounded=0;" vertex="1" parent="FWK3cAZDFUBAqfE7T13u-76">
          <mxGeometry x="40" width="40" height="40" as="geometry" />
        </mxCell>
        <mxCell id="FWK3cAZDFUBAqfE7T13u-81" value="43" style="text;html=1;align=center;verticalAlign=middle;whiteSpace=wrap;rounded=0;" vertex="1" parent="FWK3cAZDFUBAqfE7T13u-76">
          <mxGeometry y="40" width="40" height="40" as="geometry" />
        </mxCell>
        <mxCell id="FWK3cAZDFUBAqfE7T13u-82" value="46" style="text;html=1;align=center;verticalAlign=middle;whiteSpace=wrap;rounded=0;" vertex="1" parent="FWK3cAZDFUBAqfE7T13u-76">
          <mxGeometry x="40" y="40" width="40" height="40" as="geometry" />
        </mxCell>
        <mxCell id="FWK3cAZDFUBAqfE7T13u-83" value="" style="group" vertex="1" connectable="0" parent="1">
          <mxGeometry x="130" y="765" width="80" height="80" as="geometry" />
        </mxCell>
        <mxCell id="FWK3cAZDFUBAqfE7T13u-84" value="" style="endArrow=none;html=1;rounded=0;" edge="1" parent="FWK3cAZDFUBAqfE7T13u-83">
          <mxGeometry width="50" height="50" relative="1" as="geometry">
            <mxPoint x="40" y="80" as="sourcePoint" />
            <mxPoint x="40" as="targetPoint" />
          </mxGeometry>
        </mxCell>
        <mxCell id="FWK3cAZDFUBAqfE7T13u-85" value="" style="endArrow=none;html=1;rounded=0;" edge="1" parent="FWK3cAZDFUBAqfE7T13u-83">
          <mxGeometry width="50" height="50" relative="1" as="geometry">
            <mxPoint x="80" y="40" as="sourcePoint" />
            <mxPoint y="40" as="targetPoint" />
          </mxGeometry>
        </mxCell>
        <mxCell id="FWK3cAZDFUBAqfE7T13u-86" value="46" style="text;html=1;align=center;verticalAlign=middle;whiteSpace=wrap;rounded=0;" vertex="1" parent="FWK3cAZDFUBAqfE7T13u-83">
          <mxGeometry width="40" height="40" as="geometry" />
        </mxCell>
        <mxCell id="FWK3cAZDFUBAqfE7T13u-87" value="48" style="text;html=1;align=center;verticalAlign=middle;whiteSpace=wrap;rounded=0;" vertex="1" parent="FWK3cAZDFUBAqfE7T13u-83">
          <mxGeometry x="40" width="40" height="40" as="geometry" />
        </mxCell>
        <mxCell id="FWK3cAZDFUBAqfE7T13u-89" value="48" style="text;html=1;align=center;verticalAlign=middle;whiteSpace=wrap;rounded=0;" vertex="1" parent="FWK3cAZDFUBAqfE7T13u-83">
          <mxGeometry x="40" y="40" width="40" height="40" as="geometry" />
        </mxCell>
        <mxCell id="FWK3cAZDFUBAqfE7T13u-135" value="46" style="text;html=1;align=center;verticalAlign=middle;resizable=0;points=[];autosize=1;strokeColor=none;fillColor=none;" vertex="1" parent="FWK3cAZDFUBAqfE7T13u-83">
          <mxGeometry y="45" width="40" height="30" as="geometry" />
        </mxCell>
        <mxCell id="FWK3cAZDFUBAqfE7T13u-90" value="" style="group" vertex="1" connectable="0" parent="1">
          <mxGeometry x="-90" y="600" width="80" height="80" as="geometry" />
        </mxCell>
        <mxCell id="FWK3cAZDFUBAqfE7T13u-91" value="" style="endArrow=none;html=1;rounded=0;" edge="1" parent="FWK3cAZDFUBAqfE7T13u-90">
          <mxGeometry width="50" height="50" relative="1" as="geometry">
            <mxPoint x="40" y="80" as="sourcePoint" />
            <mxPoint x="40" as="targetPoint" />
          </mxGeometry>
        </mxCell>
        <mxCell id="FWK3cAZDFUBAqfE7T13u-92" value="" style="endArrow=none;html=1;rounded=0;" edge="1" parent="FWK3cAZDFUBAqfE7T13u-90">
          <mxGeometry width="50" height="50" relative="1" as="geometry">
            <mxPoint x="80" y="40" as="sourcePoint" />
            <mxPoint y="40" as="targetPoint" />
          </mxGeometry>
        </mxCell>
        <mxCell id="FWK3cAZDFUBAqfE7T13u-93" value="48" style="text;html=1;align=center;verticalAlign=middle;whiteSpace=wrap;rounded=0;" vertex="1" parent="FWK3cAZDFUBAqfE7T13u-90">
          <mxGeometry width="40" height="40" as="geometry" />
        </mxCell>
        <mxCell id="FWK3cAZDFUBAqfE7T13u-94" value="53" style="text;html=1;align=center;verticalAlign=middle;whiteSpace=wrap;rounded=0;" vertex="1" parent="FWK3cAZDFUBAqfE7T13u-90">
          <mxGeometry x="40" width="40" height="40" as="geometry" />
        </mxCell>
        <mxCell id="FWK3cAZDFUBAqfE7T13u-95" value="48" style="text;html=1;align=center;verticalAlign=middle;whiteSpace=wrap;rounded=0;" vertex="1" parent="FWK3cAZDFUBAqfE7T13u-90">
          <mxGeometry y="40" width="40" height="40" as="geometry" />
        </mxCell>
        <mxCell id="FWK3cAZDFUBAqfE7T13u-96" value="53" style="text;html=1;align=center;verticalAlign=middle;whiteSpace=wrap;rounded=0;" vertex="1" parent="FWK3cAZDFUBAqfE7T13u-90">
          <mxGeometry x="40" y="40" width="40" height="40" as="geometry" />
        </mxCell>
        <mxCell id="FWK3cAZDFUBAqfE7T13u-104" value="" style="group" vertex="1" connectable="0" parent="1">
          <mxGeometry x="60" y="430" width="80" height="80" as="geometry" />
        </mxCell>
        <mxCell id="FWK3cAZDFUBAqfE7T13u-105" value="" style="endArrow=none;html=1;rounded=0;" edge="1" parent="FWK3cAZDFUBAqfE7T13u-104">
          <mxGeometry width="50" height="50" relative="1" as="geometry">
            <mxPoint x="40" y="80" as="sourcePoint" />
            <mxPoint x="40" as="targetPoint" />
          </mxGeometry>
        </mxCell>
        <mxCell id="FWK3cAZDFUBAqfE7T13u-106" value="" style="endArrow=none;html=1;rounded=0;" edge="1" parent="FWK3cAZDFUBAqfE7T13u-104">
          <mxGeometry width="50" height="50" relative="1" as="geometry">
            <mxPoint x="80" y="40" as="sourcePoint" />
            <mxPoint y="40" as="targetPoint" />
          </mxGeometry>
        </mxCell>
        <mxCell id="FWK3cAZDFUBAqfE7T13u-107" value="11" style="text;html=1;align=center;verticalAlign=middle;whiteSpace=wrap;rounded=0;" vertex="1" parent="FWK3cAZDFUBAqfE7T13u-104">
          <mxGeometry width="40" height="40" as="geometry" />
        </mxCell>
        <mxCell id="FWK3cAZDFUBAqfE7T13u-108" value="21" style="text;html=1;align=center;verticalAlign=middle;whiteSpace=wrap;rounded=0;" vertex="1" parent="FWK3cAZDFUBAqfE7T13u-104">
          <mxGeometry x="40" width="40" height="40" as="geometry" />
        </mxCell>
        <mxCell id="FWK3cAZDFUBAqfE7T13u-109" value="21" style="text;html=1;align=center;verticalAlign=middle;whiteSpace=wrap;rounded=0;" vertex="1" parent="FWK3cAZDFUBAqfE7T13u-104">
          <mxGeometry y="40" width="40" height="40" as="geometry" />
        </mxCell>
        <mxCell id="FWK3cAZDFUBAqfE7T13u-110" value="31" style="text;html=1;align=center;verticalAlign=middle;whiteSpace=wrap;rounded=0;" vertex="1" parent="FWK3cAZDFUBAqfE7T13u-104">
          <mxGeometry x="40" y="40" width="40" height="40" as="geometry" />
        </mxCell>
        <mxCell id="FWK3cAZDFUBAqfE7T13u-128" value="" style="group" vertex="1" connectable="0" parent="1">
          <mxGeometry x="-90" y="890" width="80" height="80" as="geometry" />
        </mxCell>
        <mxCell id="FWK3cAZDFUBAqfE7T13u-129" value="" style="endArrow=none;html=1;rounded=0;" edge="1" parent="FWK3cAZDFUBAqfE7T13u-128">
          <mxGeometry width="50" height="50" relative="1" as="geometry">
            <mxPoint x="40" y="80" as="sourcePoint" />
            <mxPoint x="40" as="targetPoint" />
          </mxGeometry>
        </mxCell>
        <mxCell id="FWK3cAZDFUBAqfE7T13u-130" value="" style="endArrow=none;html=1;rounded=0;" edge="1" parent="FWK3cAZDFUBAqfE7T13u-128">
          <mxGeometry width="50" height="50" relative="1" as="geometry">
            <mxPoint x="80" y="40" as="sourcePoint" />
            <mxPoint y="40" as="targetPoint" />
          </mxGeometry>
        </mxCell>
        <mxCell id="FWK3cAZDFUBAqfE7T13u-131" value="48" style="text;html=1;align=center;verticalAlign=middle;whiteSpace=wrap;rounded=0;" vertex="1" parent="FWK3cAZDFUBAqfE7T13u-128">
          <mxGeometry width="40" height="40" as="geometry" />
        </mxCell>
        <mxCell id="FWK3cAZDFUBAqfE7T13u-132" value="53" style="text;html=1;align=center;verticalAlign=middle;whiteSpace=wrap;rounded=0;" vertex="1" parent="FWK3cAZDFUBAqfE7T13u-128">
          <mxGeometry x="40" width="40" height="40" as="geometry" />
        </mxCell>
        <mxCell id="FWK3cAZDFUBAqfE7T13u-133" value="48" style="text;html=1;align=center;verticalAlign=middle;whiteSpace=wrap;rounded=0;" vertex="1" parent="FWK3cAZDFUBAqfE7T13u-128">
          <mxGeometry y="40" width="40" height="40" as="geometry" />
        </mxCell>
        <mxCell id="FWK3cAZDFUBAqfE7T13u-134" value="53" style="text;html=1;align=center;verticalAlign=middle;whiteSpace=wrap;rounded=0;" vertex="1" parent="FWK3cAZDFUBAqfE7T13u-128">
          <mxGeometry x="40" y="40" width="40" height="40" as="geometry" />
        </mxCell>
      </root>
    </mxGraphModel>
  </diagram>
</mxfile>
